<svg width="149" height="203" viewBox="0 0 149 203" fill="none" xmlns="http://www.w3.org/2000/svg">
    <path d="M120.414 15.0484C135.761 27.4704 145.876 43.4704 148.192 63.3734C149.261 84.6094 146.378 106.186 131.885 122.729C115.38 140.015 92.6882 142.835 69.9202 143.602C69.9022 134.483 69.8902 125.365 69.8792 116.247C69.8722 111.17 69.8642 106.092 69.8562 100.86C69.9202 88.8114 69.9202 88.8114 70.5722 88.1594C71.8342 87.9974 73.0992 87.8504 74.3632 87.7114C79.0322 87.0064 83.0042 85.6874 86.8792 82.9414C89.5792 79.2584 90.1322 75.6694 89.4882 71.2004C88.6292 67.6104 87.5752 64.8194 85.1262 62.0284C80.7872 59.4904 76.8592 59.0864 72.0682 60.2754C68.5842 61.4144 67.0282 62.7554 65.1502 65.9014C57.8512 83.7434 63.1092 120.076 63.0302 137.976C62.9762 150.048 62.9212 162.12 62.8652 174.559C62.8252 183.93 62.7862 193.302 62.7452 202.958C42.0812 202.958 21.4182 202.958 0.128164 202.958C0.0931642 183.091 0.0671634 163.224 0.0461634 143.357C0.0311634 132.294 0.0161582 121.23 0.000158169 109.832C0.286158 46.6484 0.286165 46.6484 19.0432 23.5884C19.4352 23.0784 19.8272 22.5684 20.2312 22.0484C43.3262 -6.19162 92.8902 -5.94162 120.414 15.0484Z" fill="url(#paint0_linear_1_3)"/>
    <defs>
    <linearGradient id="paint0_linear_1_3" x1="74.1966" y1="5.10447e-05" x2="74.1966" y2="202.958" gradientUnits="userSpaceOnUse">
    <stop stop-color="#8B5CF6"/>
    <stop offset="1" stop-color="#7E22CE"/>
    </linearGradient>
    </defs>
    </svg>
    